<svg width="34" height="34" viewBox="0 0 34 34" xmlns="http://www.w3.org/2000/svg">
    <path d="M33.0158 16.5079C33.0158 25.625 25.625 33.0158 16.5079 33.0158C7.39082 33.0158 0 25.625 0 16.5079C0 7.39082 7.39082 0 16.5079 0C25.625 0 33.0158 7.39082 33.0158 16.5079ZM23.587 14.1562C23.9156 11.9597 22.243 10.7788 19.9559 9.99109L20.6978 7.01553L18.8864 6.56416L18.1641 9.4613C17.6879 9.34262 17.1988 9.23072 16.7128 9.11983L17.4403 6.20365L15.6299 5.75228L14.8875 8.72677C14.4933 8.63697 14.1064 8.54824 13.7308 8.45492L13.7329 8.4456L11.2347 7.82189L10.7528 9.75638C10.7528 9.75638 12.0968 10.0644 12.0685 10.0834C12.8022 10.2665 12.9348 10.752 12.9125 11.1368L12.0674 14.5266C12.118 14.5395 12.1835 14.5581 12.2557 14.5869C12.1954 14.572 12.1309 14.5555 12.0643 14.5395L10.8797 19.288C10.7899 19.5109 10.5624 19.8452 10.0496 19.7183C10.0676 19.7446 8.73296 19.3897 8.73296 19.3897L7.83367 21.463L10.191 22.0505C10.6295 22.1604 11.0593 22.2754 11.4823 22.3837L10.7327 25.3933L12.542 25.8447L13.2844 22.8671C13.7642 22.9971 14.2455 23.122 14.728 23.2416L13.9881 26.2053L15.7995 26.6566L16.5492 23.6527C19.638 24.2372 21.9608 24.0015 22.9384 21.208C23.7263 18.9588 22.8992 17.6614 21.274 16.8154C22.4576 16.5426 23.3491 15.7642 23.587 14.1562ZM19.4482 19.9592C18.8884 22.2084 15.101 20.9925 13.8731 20.6876L14.8678 16.7005C16.0957 17.0069 20.0332 17.6136 19.4482 19.9592ZM20.0085 14.1237C19.4977 16.1696 16.3454 15.1302 15.3228 14.8754L16.2246 11.2591C17.2472 11.5139 20.5404 11.9895 20.0085 14.1237Z" fill="white"/>
</svg>
